<?xml version="1.0"?>
<svg xmlns="http://www.w3.org/2000/svg" xmlns:xlink="http://www.w3.org/1999/xlink" xmlns:svgjs="http://svgjs.com/svgjs" version="1.1" width="512" height="512" x="0" y="0" viewBox="0 0 512.096 512.096" style="enable-background:new 0 0 512 512" xml:space="preserve" class=""><g>
<g xmlns="http://www.w3.org/2000/svg">
	<g>
		<path d="M469.388,309.429v62.827c-1.525,6.368-11.829,43.84-42.667,43.84c-5.891,0-10.667,4.776-10.667,10.667v64H213.388v-74.667    c0-33.749-20.928-42.667-32-42.667h-64c-0.866,0.056-1.735,0.056-2.602,0c-11.064-0.719-19.45-10.27-18.732-21.333v-39.765    c-0.002-3.051-1.31-5.956-3.595-7.979c-10.695-9.864-24.537-15.623-39.072-16.256c-0.047,0.006-0.095,0.011-0.142,0.016    c-5.143,0.545-9.755-3.182-10.301-8.326l51.776-93.867c0.873-1.577,1.331-3.35,1.333-5.152v-20.672    c0.088-76.547,62.12-138.578,138.667-138.667V0.096c-88.324,0.1-159.9,71.676-160,160v17.931l-52,94.251    c-0.873,1.577-1.331,3.35-1.333,5.152c-0.018,0.606-0.018,1.213,0,1.819c0.502,17.171,14.829,30.684,32,30.181    c7.758,0.431,15.2,3.218,21.333,7.989v34.677c-0.024,0.808-0.024,1.617,0,2.425c0.67,22.895,19.772,40.911,42.667,40.242h63.691    c1.835,0.117,10.976,1.696,10.976,21.333v85.333c0,5.891,4.776,10.667,10.667,10.667h224v0c5.891,0,10.667-4.776,10.667-10.667    v-64.939c33.333-6.304,49.237-41.483,53.12-60.928c0.148-0.701,0.22-1.417,0.213-2.133v-64H469.388z" fill="#d85e00" data-original="#000000" style="" class=""/>
	</g>
</g>
<g xmlns="http://www.w3.org/2000/svg">
	<g>
		<path d="M351.959,0c-76.584,0.053-138.624,62.179-138.571,138.763c0.09,37.554,15.191,73.514,41.941,99.872    c25.065,24.852,58.932,38.796,94.229,38.795c0.896,0,1.803,0,2.709,0l-0.427-21.333c-30.501,0.639-59.951-11.155-81.579-32.672    c-22.674-22.344-35.471-52.828-35.541-84.661c0-64.801,52.532-117.333,117.333-117.333s117.333,52.532,117.333,117.333v64h21.333    v-64.192C490.668,61.987,428.542-0.053,351.959,0z" fill="#d85e00" data-original="#000000" style="" class=""/>
	</g>
</g>
<g xmlns="http://www.w3.org/2000/svg">
	<g>
		<path d="M416.054,106.763h-32v-32c0-11.782-9.551-21.333-21.333-21.333h-21.333c-11.782,0-21.333,9.551-21.333,21.333v32h-32    c-11.782,0-21.333,9.551-21.333,21.333v21.333c0,11.782,9.551,21.333,21.333,21.333h32v32c0,11.782,9.551,21.333,21.333,21.333    h21.333c11.782,0,21.333-9.551,21.333-21.333v-32h32c11.782,0,21.333-9.551,21.333-21.333v-21.333    C437.388,116.314,427.837,106.763,416.054,106.763z M416.054,149.429h-42.667c-5.891,0-10.667,4.776-10.667,10.667v42.667h-21.333    v-42.667c0-5.891-4.776-10.667-10.667-10.667h-42.667v-21.333h42.667c5.891,0,10.667-4.776,10.667-10.667V74.763h21.333v42.667    c0,5.891,4.776,10.667,10.667,10.667h42.667V149.429z" fill="#d85e00" data-original="#000000" style="" class=""/>
	</g>
</g>
<g xmlns="http://www.w3.org/2000/svg">
	<g>
		<rect x="469.388" y="266.763" width="21.333" height="21.333" fill="#d85e00" data-original="#000000" style="" class=""/>
	</g>
</g>
<g xmlns="http://www.w3.org/2000/svg">
	<g>
		<rect x="469.388" y="224.096" width="21.333" height="21.333" fill="#d85e00" data-original="#000000" style="" class=""/>
	</g>
</g>
<g xmlns="http://www.w3.org/2000/svg">
</g>
<g xmlns="http://www.w3.org/2000/svg">
</g>
<g xmlns="http://www.w3.org/2000/svg">
</g>
<g xmlns="http://www.w3.org/2000/svg">
</g>
<g xmlns="http://www.w3.org/2000/svg">
</g>
<g xmlns="http://www.w3.org/2000/svg">
</g>
<g xmlns="http://www.w3.org/2000/svg">
</g>
<g xmlns="http://www.w3.org/2000/svg">
</g>
<g xmlns="http://www.w3.org/2000/svg">
</g>
<g xmlns="http://www.w3.org/2000/svg">
</g>
<g xmlns="http://www.w3.org/2000/svg">
</g>
<g xmlns="http://www.w3.org/2000/svg">
</g>
<g xmlns="http://www.w3.org/2000/svg">
</g>
<g xmlns="http://www.w3.org/2000/svg">
</g>
<g xmlns="http://www.w3.org/2000/svg">
</g>
</g></svg>
